<?xml version="1.0" encoding="utf-8"?>
<!-- Generator: Adobe Illustrator 25.0.0, SVG Export Plug-In . SVG Version: 6.00 Build 0)  -->
<svg version="1.1" id="Layer_1" xmlns="http://www.w3.org/2000/svg" xmlns:xlink="http://www.w3.org/1999/xlink" x="0px" y="0px"
	 viewBox="0 0 36 36" style="enable-background:new 0 0 36 36;" xml:space="preserve">
<style type="text/css">
	.st0{fill:#FFCC4D;}
	.st1{fill:#664500;}
	.st2{fill:#F19020;}
	.st3{fill:#5DADEC;}
</style>
<circle class="st0" cx="20.2" cy="18" r="15.8"/>
<path class="st1" d="M13.7,22.9c0,0.2,1,3.8,6.6,3.8c5.5,0,6.5-3.7,6.6-3.8c0-0.2,0-0.4-0.2-0.5c-0.2-0.1-0.4-0.1-0.5,0.1
	c0,0-1.7,1.6-5.8,1.6s-5.8-1.6-5.8-1.6c-0.1-0.1-0.2-0.1-0.3-0.1c-0.1,0-0.1,0-0.2,0.1C13.7,22.5,13.6,22.7,13.7,22.9z"/>
<ellipse class="st1" cx="15" cy="14.1" rx="2.2" ry="3.1"/>
<ellipse class="st1" cx="25.5" cy="14.1" rx="2.2" ry="3.1"/>
<path class="st2" d="M2,24.1c0.9-1.3,3.6-4.3,4.3-5.3c0.6-0.9,1.9-0.2,1.5,0.9C7.4,20.8,4.9,25,4.9,25s2,0.2,2.5,0.6
	s1.9,3.5,1.2,4.1s-1.8,0.5-1.8,0.5s-0.6,3.1-3.7,3.5c-1.3,0.1-2.7-0.7-2.9-2.6c-0.2-1.9,0.4-3.8,0.6-4.8C0.9,25.1,2,24.1,2,24.1z"/>
<path class="st3" d="M4.9,19.5c0,0-0.1,0-0.1-0.1c-2.2-1.3-2-4.7-2-4.9C2.8,14.2,3,14,3.3,14c0.3,0,0.5,0.3,0.5,0.6
	c0,0-0.2,2.8,1.5,3.8c0.2,0.1,0.3,0.5,0.2,0.8C5.3,19.4,5.1,19.5,4.9,19.5z M3.4,21.7c0,0-0.1,0-0.1-0.1C0,19.7,0,14.8,0,14.6
	c0-0.3,0.2-0.6,0.5-0.6c0.3,0,0.5,0.2,0.5,0.6c0,0,0,4.4,2.8,6.1C4,20.7,4.1,21,4,21.3C3.8,21.6,3.6,21.7,3.4,21.7z"/>
</svg>
