<?xml version="1.0" encoding="utf-8"?>
<!-- Generator: Adobe Illustrator 25.0.0, SVG Export Plug-In . SVG Version: 6.00 Build 0)  -->
<svg version="1.1" id="Layer_1" xmlns="http://www.w3.org/2000/svg" xmlns:xlink="http://www.w3.org/1999/xlink" x="0px" y="0px"
	 viewBox="0 0 36 36" style="enable-background:new 0 0 36 36;" xml:space="preserve">
<style type="text/css">
	.st0{fill:#FFCC4D;}
	.st1{fill:#664500;}
	.st2{fill:#66757F;}
	.st3{fill:#D99E82;}
	.st4{fill:#5C913B;}
	.st5{fill:#226699;}
	.st6{fill:#DD2E44;}
	.st7{fill:#F4900C;}
</style>
<circle class="st0" cx="19.3" cy="18" r="15.3"/>
<path class="st1" d="M13,22.8c0,0.2,1,3.7,6.3,3.7c5.4,0,6.3-3.6,6.3-3.7c0-0.2,0-0.4-0.2-0.5s-0.4-0.1-0.5,0.1c0,0-1.7,1.6-5.6,1.6
	s-5.6-1.6-5.6-1.6c-0.1-0.1-0.2-0.1-0.3-0.1s-0.1,0-0.2,0.1C13,22.4,12.9,22.6,13,22.8z"/>
<ellipse class="st1" cx="14.2" cy="15.1" rx="2.1" ry="3"/>
<ellipse class="st1" cx="24.4" cy="15.1" rx="2.1" ry="3"/>
<path class="st2" d="M35.8,7.7c-0.7-2.9-7-5.4-13.5-5.7c0.5-0.3,0.9-0.6,1.3-0.7C24.6,1,23.3,0,22.3,0c0,0-1.5,0.7-2.7,2
	C10.1,2.5,2.5,7.6,2.7,9s1.7,0,1.8,1.2s1.3,1.3,1.3,1.3s4.7-0.6,12.4,0.1C26,12.2,31,12.2,33,12.8c1.2,0.3,1.4-1.6,1.4-1.6
	S36.5,11,35.8,7.7z"/>
<path class="st3" d="M24.7,36c-0.3-3.6-3.8-7.4-9-9.2c-6.2-2.2-12.5-0.6-13.9,3.6c-0.6,1.8-0.2,3.8,0.9,5.6H24.7z"/>
<ellipse transform="matrix(0.3278 -0.9448 0.9448 0.3278 -17.5015 40.1187)" class="st4" cx="19.4" cy="32.4" rx="1.5" ry="2"/>
<ellipse transform="matrix(0.3278 -0.9448 0.9448 0.3278 -27.9431 28.4782)" class="st5" cx="6" cy="33.9" rx="1.5" ry="2"/>
<ellipse transform="matrix(0.3278 -0.9448 0.9448 0.3278 -22.4481 26.9234)" class="st6" cx="7.7" cy="29.2" rx="1.5" ry="2"/>
<ellipse transform="matrix(0.2977 -0.9547 0.9547 0.2977 -17.7945 34.0479)" class="st0" cx="14.2" cy="29.1" rx="1.5" ry="2"/>
<path class="st7" d="M0,30.4c0.1-1.1,1.3-3,2.8-2.8c1.6,0.2,0.1,2.9,0,3.7s0.1,2.7-0.9,2.8C0.4,34.2-0.1,32.4,0,30.4z"/>
</svg>
