<?xml version="1.0" encoding="utf-8"?>
<!-- Generator: Adobe Illustrator 25.0.0, SVG Export Plug-In . SVG Version: 6.00 Build 0)  -->
<svg version="1.1" id="Layer_1" xmlns="http://www.w3.org/2000/svg" xmlns:xlink="http://www.w3.org/1999/xlink" x="0px" y="0px"
	 viewBox="0 0 36 36" style="enable-background:new 0 0 36 36;" xml:space="preserve">
<style type="text/css">
	.st0{fill:#FFCC4D;}
	.st1{fill:#664500;}
	.st2{fill:#C1694F;}
	.st3{fill:#66757F;}
	.st4{fill:#292F33;}
</style>
<circle class="st0" cx="20.1" cy="19.8" r="13.7"/>
<path class="st1" d="M14.4,25.2c0,0.1,0.9,3.3,5.7,3.3c4.8,0,5.6-3.2,5.7-3.3c0-0.2,0-0.3-0.2-0.4c-0.1-0.1-0.3-0.1-0.5,0.1
	c0,0-1.5,1.4-5,1.4s-5-1.4-5-1.4c-0.1-0.1-0.2-0.1-0.3-0.1c-0.1,0-0.1,0-0.2,0C14.5,24.8,14.4,25,14.4,25.2z"/>
<ellipse class="st1" cx="15.6" cy="18.5" rx="1.9" ry="2.7"/>
<ellipse class="st1" cx="24.7" cy="18.5" rx="1.9" ry="2.7"/>
<path class="st2" d="M7,31.7c0-0.7-0.6-1.2-1.2-1.2s-1.2,0.6-1.2,1.2V36H7V31.7z"/>
<path class="st3" d="M10,22.7c0,2.4-1.9,4.3-4.3,4.3s-4.3-1.9-4.3-4.3c0-0.1-1.5-0.1-1.5,0c0,3.2,2.6,5.8,5.8,5.8s5.8-2.6,5.8-5.8
	C11.5,22.7,10,22.7,10,22.7z"/>
<path class="st2" d="M29.3,10.1c0,1.5-3.5,2.5-9.1,2.5c-5.6,0-9.1-1-9.1-2.5c0-4,4.5-10,6.1-10c1.5,0,2.5,2,3,2c0.5,0,1.5-2,3-2
	C24.7,0.1,29.3,6.1,29.3,10.1z"/>
<path class="st2" d="M36,9.2c0,1.9-4,6.8-15.9,6.8S4.2,11.1,4.2,9.2S12,8.1,20.1,8.1S36,7.3,36,9.2z"/>
<path class="st4" d="M29.3,10.1c0,1.5-3.5,2.5-9.1,2.5c-5.6,0-9.1-1-9.1-2.5c0-0.6,0.1-1.3,0.3-2c2.7,2.3,14.8,2.3,17.5,0
	C29.1,8.8,29.3,9.5,29.3,10.1z"/>
<path class="st3" d="M1.5,22.7c0,0.4-0.3,0.8-0.8,0.8S0,23.2,0,22.7v-8.5c0-0.4,0.3-0.8,0.8-0.8s0.8,0.3,0.8,0.8V22.7z M11.5,22.7
	c0,0.4-0.3,0.8-0.8,0.8S10,23.2,10,22.7v-8.5c0-0.4,0.3-0.8,0.8-0.8s0.8,0.3,0.8,0.8V22.7z M6.5,31c0,0.4-0.3,0.8-0.8,0.8
	S5,31.4,5,31V14.2c0-0.4,0.3-0.8,0.8-0.8s0.8,0.3,0.8,0.8V31z"/>
</svg>
