<?xml version="1.0" encoding="utf-8"?>
<!-- Generator: Adobe Illustrator 25.0.0, SVG Export Plug-In . SVG Version: 6.00 Build 0)  -->
<svg version="1.1" id="Layer_1" xmlns="http://www.w3.org/2000/svg" xmlns:xlink="http://www.w3.org/1999/xlink" x="0px" y="0px"
	 viewBox="0 0 36 36" style="enable-background:new 0 0 36 36;" xml:space="preserve">
<style type="text/css">
	.st0{fill:#FFCC4D;}
	.st1{fill:#664500;}
	.st2{fill:#E1E8ED;}
	.st3{fill:#292F33;}
	.st4{fill:#3B88C3;}
	.st5{fill:#226699;}
	.st6{fill:#66757F;}
	.st7{fill:#99AAB5;}
	.st8{fill:#F4900C;}
	.st9{fill:#FFDC5D;}
</style>
<circle class="st0" cx="19.1" cy="18.4" r="15.3"/>
<path class="st1" d="M12.6,26.3c0,0.2,1,3.7,6.4,3.7c5.4,0,6.3-3.6,6.4-3.7c0-0.2,0-0.4-0.2-0.5c-0.2-0.1-0.4-0.1-0.5,0.1
	c0,0-1.7,1.6-5.7,1.6s-5.6-1.6-5.7-1.6c-0.1-0.1-0.2-0.1-0.3-0.1c-0.1,0-0.1,0-0.2,0.1C12.7,25.9,12.6,26.1,12.6,26.3z"/>
<circle class="st2" cx="12.2" cy="18.7" r="5.3"/>
<circle class="st2" cx="25.8" cy="18.7" r="5.3"/>
<path class="st2" d="M15.2,16.4h7.6v3.8h-7.6V16.4z"/>
<circle class="st3" cx="12.2" cy="18.7" r="3.8"/>
<circle class="st3" cx="25.8" cy="18.7" r="3.8"/>
<path class="st4" d="M35.6,11.8c-4.1-2.1-1.4-4.5-4.1-7.5C28.9,1.4,24.6,0,19,0C12.1,0,9.2,1.4,6.6,4.3c-2.7,3,0,5.4-4.1,7.5
	c-2.6,1.3,8.3,2.5,16.6,2.5S38.2,13.1,35.6,11.8"/>
<path class="st5" d="M16.3,12.3V0.1c-0.5,0-0.9,0.1-1.4,0.1v11c-2.9-0.1-7.1-0.4-10.6-0.9c-0.2,0.3-0.6,0.6-1,0.9
	c4,0.6,9.1,1.1,12.3,1.1L16.3,12.3L16.3,12.3z M22.5,12.3c3.3,0,8.3-0.4,12.3-1c-0.4-0.3-0.8-0.6-1-0.9c-3.4,0.5-7.4,0.8-10.6,0.9
	V0.3c-0.4-0.1-0.9-0.1-1.4-0.2v12.2C21.8,12.3,22.5,12.3,22.5,12.3z"/>
<path class="st6" d="M5.1,24l-1.5,1c0,0,1.5,2.5,1.5,6v5h2v-5C7.1,26.5,5.1,24,5.1,24z"/>
<path class="st7" d="M6.2,23.8c0.2,0.4,0.1,0.9-0.3,1.1L3.7,26c-0.4,0.2-0.9,0.1-1.1-0.3l-0.5-0.8c-0.2-0.4-0.1-0.9,0.3-1.1l2.1-1.2
	C5,22.5,5.5,22.6,5.7,23L6.2,23.8z"/>
<path class="st8" d="M3.6,22.6c4.2-2.2-3.4-6.3-3.4-6.3S-0.6,24.8,3.6,22.6z"/>
<path class="st9" d="M3,21.4c2.2-1.2-1.8-3.3-1.8-3.3S0.8,22.5,3,21.4z"/>
</svg>
