<?xml version="1.0" encoding="utf-8"?>
<!-- Generator: Adobe Illustrator 25.0.0, SVG Export Plug-In . SVG Version: 6.00 Build 0)  -->
<svg version="1.1" id="Layer_1" xmlns="http://www.w3.org/2000/svg" xmlns:xlink="http://www.w3.org/1999/xlink" x="0px" y="0px"
	 viewBox="0 0 36 36" style="enable-background:new 0 0 36 36;" xml:space="preserve">
<style type="text/css">
	.st0{fill:#D99E82;}
	.st1{fill:#5C913B;}
	.st2{fill:#FFFFFF;}
	.st3{fill:#FFCC4D;}
	.st4{fill:#664500;}
</style>
<path class="st0" d="M30,26c0,2.2-1.8,4-4,4H4c-2.2,0-4-1.8-4-4V4c0-2.2,1.8-4,4-4h22c2.2,0,4,1.8,4,4V26z"/>
<path class="st1" d="M28,26c0,1.1-0.9,2-2,2H4c-1.1,0-2-0.9-2-2V4c0-1.1,0.9-2,2-2h22c1.1,0,2,0.9,2,2V26z"/>
<path class="st2" d="M7.5,8.9C7.4,9,7.3,9.1,7.3,9.3c0,0.4,0.3,0.5,0.6,0.5h2.7c0.3,0,0.6-0.2,0.6-0.5s-0.3-0.5-0.6-0.5H9.1
	c0.7-0.9,1.9-2,1.9-3.1c0-1-0.8-1.7-1.8-1.7S7.4,4.9,7.4,5.9c0,0.3,0.2,0.6,0.6,0.6c0.8,0,0.3-1.3,1.2-1.3c0.3,0,0.6,0.3,0.6,0.6
	c0,0.3-0.1,0.5-0.3,0.7C8.9,7.4,8.2,8.1,7.5,8.9z M6.2,14.3H5v-1.2c0-0.3-0.2-0.5-0.5-0.5c-0.3,0-0.5,0.2-0.5,0.5v1.2H2.9
	c-0.3,0-0.5,0.2-0.5,0.5c0,0.3,0.2,0.5,0.5,0.5h1.2v1.2c0,0.3,0.2,0.5,0.5,0.5c0.3,0,0.5-0.2,0.5-0.5v-1.2h1.2
	c0.3,0,0.5-0.2,0.5-0.5C6.7,14.5,6.5,14.3,6.2,14.3z M10.6,15.8H9.1c0.7-0.9,1.9-2,1.9-3.1c0-1-0.8-1.7-1.8-1.7s-1.9,0.8-1.9,1.8
	c0,0.3,0.2,0.6,0.6,0.6c0.8,0,0.3-1.3,1.2-1.3c0.3,0,0.6,0.3,0.6,0.6c0,0.3-0.1,0.5-0.3,0.7c-0.6,0.9-1.3,1.6-2,2.4
	c-0.1,0.1-0.2,0.2-0.2,0.4c0,0.4,0.3,0.5,0.6,0.5h2.7c0.3,0,0.6-0.2,0.6-0.5C11.2,15.9,10.9,15.8,10.6,15.8z M11.4,19H3.1
	c-0.3,0-0.5-0.2-0.5-0.5S2.8,18,3.1,18h8.3c0.3,0,0.5,0.2,0.5,0.5C11.9,18.7,11.7,19,11.4,19z"/>
<circle class="st3" cx="21.9" cy="21.8" r="14.1"/>
<path class="st4" d="M16.1,26.2c0,0.1,0.9,3.4,5.8,3.4c4.9,0,5.8-3.3,5.8-3.4c0-0.2,0-0.3-0.2-0.4c-0.2-0.1-0.3-0.1-0.5,0.1
	c0,0-1.5,1.4-5.2,1.4s-5.2-1.4-5.2-1.4c-0.1-0.1-0.2-0.1-0.3-0.1c-0.1,0-0.1,0-0.2,0C16.1,25.9,16.1,26.1,16.1,26.2z"/>
<ellipse class="st4" cx="17.3" cy="18.3" rx="2" ry="2.7"/>
<ellipse class="st4" cx="26.6" cy="18.3" rx="2" ry="2.7"/>
</svg>
