<?xml version="1.0" encoding="utf-8"?>
<!-- Generator: Adobe Illustrator 25.0.0, SVG Export Plug-In . SVG Version: 6.00 Build 0)  -->
<svg version="1.1" id="Layer_1" xmlns="http://www.w3.org/2000/svg" xmlns:xlink="http://www.w3.org/1999/xlink" x="0px" y="0px"
	 viewBox="0 0 36 36" style="enable-background:new 0 0 36 36;" xml:space="preserve">
<style type="text/css">
	.st0{fill:#CCD6DC;}
	.st1{fill:#F5F8FA;}
	.st2{fill:#50A5E6;}
	.st3{fill:#77B255;}
	.st4{fill:#DD2F45;}
	.st5{fill:#FFCC4D;}
	.st6{fill:#664500;}
</style>
<path class="st0" d="M30,26c0,2.2-1.8,4-4,4H4c-2.2,0-4-1.8-4-4V4c0-2.2,1.8-4,4-4h22c2.2,0,4,1.8,4,4V26z"/>
<path class="st1" d="M28,26c0,1.1-0.9,2-2,2H4c-1.1,0-2-0.9-2-2V4c0-1.1,0.9-2,2-2h22c1.1,0,2,0.9,2,2V26z"/>
<path class="st2" d="M6,26c-0.6,0-1-0.4-1-1V13c0-0.6,0.4-1,1-1s1,0.4,1,1v12C7,25.6,6.6,26,6,26z"/>
<path class="st3" d="M10,26c-0.6,0-1-0.5-1-1.2V5c0-0.6,0.4-1.2,1-1.2s1,0.5,1,1.2v19.8C11,25.5,10.6,26,10,26z"/>
<path class="st4" d="M14,26c-0.6,0-1-1-1-2.1v-15c0-1.2,0.4-2.1,1-2.1s1,1,1,2.1v15C15,25,14.6,26,14,26z"/>
<circle class="st5" cx="22.3" cy="22.3" r="13.7"/>
<path class="st6" d="M16.6,26.6c0,0.1,0.9,3.3,5.7,3.3c4.8,0,5.7-3.2,5.7-3.3c0-0.2,0-0.3-0.2-0.4c-0.1-0.1-0.3-0.1-0.5,0.1
	c0,0-1.5,1.4-5.1,1.4s-5-1.4-5.1-1.4c-0.1-0.1-0.2-0.1-0.3-0.1c-0.1,0-0.1,0-0.2,0C16.6,26.2,16.6,26.4,16.6,26.6z"/>
<ellipse class="st6" cx="17.7" cy="18.9" rx="1.9" ry="2.7"/>
<ellipse class="st6" cx="26.9" cy="18.9" rx="1.9" ry="2.7"/>
</svg>
