<?xml version="1.0" encoding="utf-8"?>
<!-- Generator: Adobe Illustrator 25.0.0, SVG Export Plug-In . SVG Version: 6.00 Build 0)  -->
<svg version="1.1" id="Layer_1" xmlns="http://www.w3.org/2000/svg" xmlns:xlink="http://www.w3.org/1999/xlink" x="0px" y="0px"
	 viewBox="0 0 36 36" style="enable-background:new 0 0 36 36;" xml:space="preserve">
<style type="text/css">
	.st0{fill:#FFCC4D;}
	.st1{fill:#664500;}
	.st2{fill:#E1E8ED;}
	.st3{fill:#99AAB5;}
</style>
<circle class="st0" cx="20.6" cy="15.4" r="15.4"/>
<path class="st1" d="M14.2,20.2c0,0.2,1,3.8,6.4,3.8c5.4,0,6.4-3.6,6.4-3.8c0-0.2,0-0.4-0.2-0.5c-0.2-0.1-0.4-0.1-0.5,0.1
	c0,0-1.7,1.6-5.7,1.6s-5.7-1.6-5.7-1.6c-0.1-0.1-0.2-0.1-0.3-0.1c-0.1,0-0.1,0-0.2,0.1C14.2,19.9,14.1,20.1,14.2,20.2z"/>
<ellipse class="st1" cx="15.4" cy="11.6" rx="2.1" ry="3"/>
<ellipse class="st1" cx="25.7" cy="11.6" rx="2.1" ry="3"/>
<path class="st2" d="M33,35c0,0.6-0.4,1-1,1H22c-0.6,0-1-0.4-1-1s0.4-1,1-1h10C32.5,34,33,34.4,33,35z"/>
<path class="st2" d="M20.2,22H3.8c-1.5,0-3.5,0.8-2.5,3.5L4.3,34c0,0,0.4,2,2.6,2h20l-4-11.2C22.6,23.4,21.8,22,20.2,22z"/>
<path class="st3" d="M19.2,22H2.8c-1.5,0-3.5,0.8-2.5,3.5L3.3,34c0,0,0.4,2,2.6,2h20l-4-11.2C21.6,23.4,20.8,22,19.2,22z"/>
<path class="st2" d="M14,29.3c0.5,1.6,0.1,3.1-0.9,3.5c-1,0.3-2.3-0.6-2.8-2.2s-0.1-3.1,0.9-3.5S13.5,27.7,14,29.3z M19,24.8H3
	c-0.4,0-0.8-0.3-0.8-0.8s0.3-0.8,0.8-0.8h16c0.4,0,0.8,0.3,0.8,0.8S19.4,24.8,19,24.8z"/>
</svg>
